<mxfile host="Electron" agent="Mozilla/5.0 (Windows NT 10.0; Win64; x64) AppleWebKit/537.36 (KHTML, like Gecko) draw.io/24.7.8 Chrome/128.0.6613.36 Electron/32.0.1 Safari/537.36" version="24.7.8">
  <diagram name="Página-1" id="rPAr2EWBGc4suIFGrgTw">
    <mxGraphModel dx="3129" dy="2729" grid="1" gridSize="10" guides="1" tooltips="1" connect="1" arrows="1" fold="1" page="1" pageScale="1" pageWidth="827" pageHeight="1169" math="0" shadow="0">
      <root>
        <mxCell id="0" />
        <mxCell id="1" parent="0" />
        <mxCell id="h445fZysmHR-Be-4jW6h-1" value="ALQUILER" style="whiteSpace=wrap;html=1;align=center;fillColor=#e51400;fontColor=#ffffff;strokeColor=#B20000;fontStyle=1" parent="1" vertex="1">
          <mxGeometry x="-460" y="-744" width="100" height="40" as="geometry" />
        </mxCell>
        <mxCell id="h445fZysmHR-Be-4jW6h-3" value="VIVIENDA" style="whiteSpace=wrap;html=1;align=center;fillColor=#e51400;fontColor=#ffffff;strokeColor=#B20000;fontStyle=1" parent="1" vertex="1">
          <mxGeometry x="-40" y="-744" width="100" height="40" as="geometry" />
        </mxCell>
        <mxCell id="h445fZysmHR-Be-4jW6h-4" value="AGENCIA INMOBILIARIA" style="whiteSpace=wrap;html=1;align=center;fontStyle=1;fillColor=#e51400;fontColor=#ffffff;strokeColor=#B20000;" parent="1" vertex="1">
          <mxGeometry x="-40" y="-414" width="100" height="40" as="geometry" />
        </mxCell>
        <mxCell id="h445fZysmHR-Be-4jW6h-5" value="ID" style="ellipse;whiteSpace=wrap;html=1;align=center;fontStyle=4;fillColor=#f8cecc;strokeColor=#b85450;" parent="1" vertex="1">
          <mxGeometry x="-580" y="-684" width="100" height="40" as="geometry" />
        </mxCell>
        <mxCell id="h445fZysmHR-Be-4jW6h-6" value="importe mensual" style="ellipse;whiteSpace=wrap;html=1;align=center;fillColor=#f5f5f5;fontColor=#333333;strokeColor=#666666;" parent="1" vertex="1">
          <mxGeometry x="-460" y="-824" width="100" height="40" as="geometry" />
        </mxCell>
        <mxCell id="h445fZysmHR-Be-4jW6h-7" value="nombre" style="ellipse;whiteSpace=wrap;html=1;align=center;fillColor=#f5f5f5;fontColor=#333333;strokeColor=#666666;" parent="1" vertex="1">
          <mxGeometry x="-180" y="-414" width="100" height="40" as="geometry" />
        </mxCell>
        <mxCell id="h445fZysmHR-Be-4jW6h-8" value="ID" style="ellipse;whiteSpace=wrap;html=1;align=center;fontStyle=4;fillColor=#f8cecc;strokeColor=#b85450;" parent="1" vertex="1">
          <mxGeometry x="-150" y="-794" width="100" height="40" as="geometry" />
        </mxCell>
        <mxCell id="h445fZysmHR-Be-4jW6h-9" value="ID" style="ellipse;whiteSpace=wrap;html=1;align=center;fontStyle=4;fillColor=#f8cecc;strokeColor=#b85450;" parent="1" vertex="1">
          <mxGeometry x="90" y="-414" width="100" height="40" as="geometry" />
        </mxCell>
        <mxCell id="h445fZysmHR-Be-4jW6h-10" value="población" style="ellipse;whiteSpace=wrap;html=1;align=center;fillColor=#f5f5f5;fontColor=#333333;strokeColor=#666666;" parent="1" vertex="1">
          <mxGeometry x="-150" y="-694" width="100" height="40" as="geometry" />
        </mxCell>
        <mxCell id="h445fZysmHR-Be-4jW6h-11" value="piso" style="ellipse;whiteSpace=wrap;html=1;align=center;fillColor=#f5f5f5;fontColor=#333333;strokeColor=#666666;" parent="1" vertex="1">
          <mxGeometry x="-40" y="-824" width="100" height="40" as="geometry" />
        </mxCell>
        <mxCell id="h445fZysmHR-Be-4jW6h-12" value="número" style="ellipse;whiteSpace=wrap;html=1;align=center;fillColor=#f5f5f5;fontColor=#333333;strokeColor=#666666;" parent="1" vertex="1">
          <mxGeometry x="70" y="-694" width="100" height="40" as="geometry" />
        </mxCell>
        <mxCell id="h445fZysmHR-Be-4jW6h-15" value="" style="endArrow=none;html=1;rounded=0;exitX=1;exitY=0;exitDx=0;exitDy=0;entryX=0;entryY=1;entryDx=0;entryDy=0;" parent="1" source="h445fZysmHR-Be-4jW6h-5" target="h445fZysmHR-Be-4jW6h-1" edge="1">
          <mxGeometry relative="1" as="geometry">
            <mxPoint x="-190" y="-514" as="sourcePoint" />
            <mxPoint x="-360" y="-744" as="targetPoint" />
          </mxGeometry>
        </mxCell>
        <mxCell id="h445fZysmHR-Be-4jW6h-16" value="" style="endArrow=none;html=1;rounded=0;exitX=0.5;exitY=0;exitDx=0;exitDy=0;entryX=0.5;entryY=1;entryDx=0;entryDy=0;" parent="1" source="h445fZysmHR-Be-4jW6h-1" target="h445fZysmHR-Be-4jW6h-6" edge="1">
          <mxGeometry relative="1" as="geometry">
            <mxPoint x="-405" y="-770" as="sourcePoint" />
            <mxPoint x="-350" y="-735" as="targetPoint" />
          </mxGeometry>
        </mxCell>
        <mxCell id="h445fZysmHR-Be-4jW6h-17" value="" style="endArrow=none;html=1;rounded=0;exitX=1;exitY=1;exitDx=0;exitDy=0;entryX=0;entryY=0;entryDx=0;entryDy=0;" parent="1" source="h445fZysmHR-Be-4jW6h-8" target="h445fZysmHR-Be-4jW6h-3" edge="1">
          <mxGeometry relative="1" as="geometry">
            <mxPoint x="-425" y="-740" as="sourcePoint" />
            <mxPoint x="-370" y="-705" as="targetPoint" />
          </mxGeometry>
        </mxCell>
        <mxCell id="h445fZysmHR-Be-4jW6h-18" value="" style="endArrow=none;html=1;rounded=0;exitX=0;exitY=0.5;exitDx=0;exitDy=0;entryX=1;entryY=0.5;entryDx=0;entryDy=0;" parent="1" source="h445fZysmHR-Be-4jW6h-4" target="h445fZysmHR-Be-4jW6h-7" edge="1">
          <mxGeometry relative="1" as="geometry">
            <mxPoint x="-113" y="-444" as="sourcePoint" />
            <mxPoint x="-433" y="-435" as="targetPoint" />
          </mxGeometry>
        </mxCell>
        <mxCell id="h445fZysmHR-Be-4jW6h-21" value="" style="endArrow=none;html=1;rounded=0;exitX=1;exitY=1;exitDx=0;exitDy=0;entryX=0;entryY=0;entryDx=0;entryDy=0;" parent="1" target="h445fZysmHR-Be-4jW6h-12" edge="1">
          <mxGeometry relative="1" as="geometry">
            <mxPoint x="60" y="-704" as="sourcePoint" />
            <mxPoint x="400" y="-644" as="targetPoint" />
          </mxGeometry>
        </mxCell>
        <mxCell id="h445fZysmHR-Be-4jW6h-22" value="" style="endArrow=none;html=1;rounded=0;exitX=1;exitY=0.5;exitDx=0;exitDy=0;entryX=0;entryY=0.5;entryDx=0;entryDy=0;" parent="1" source="h445fZysmHR-Be-4jW6h-4" target="h445fZysmHR-Be-4jW6h-9" edge="1">
          <mxGeometry relative="1" as="geometry">
            <mxPoint x="30" y="-364" as="sourcePoint" />
            <mxPoint x="60" y="-304" as="targetPoint" />
          </mxGeometry>
        </mxCell>
        <mxCell id="h445fZysmHR-Be-4jW6h-23" value="" style="endArrow=none;html=1;rounded=0;exitX=0;exitY=1;exitDx=0;exitDy=0;entryX=1;entryY=0;entryDx=0;entryDy=0;" parent="1" source="h445fZysmHR-Be-4jW6h-3" target="h445fZysmHR-Be-4jW6h-10" edge="1">
          <mxGeometry relative="1" as="geometry">
            <mxPoint x="-55" y="-699" as="sourcePoint" />
            <mxPoint x="-55" y="-679" as="targetPoint" />
          </mxGeometry>
        </mxCell>
        <mxCell id="h445fZysmHR-Be-4jW6h-24" value="" style="endArrow=none;html=1;rounded=0;exitX=0.5;exitY=1;exitDx=0;exitDy=0;entryX=0.5;entryY=0;entryDx=0;entryDy=0;" parent="1" source="h445fZysmHR-Be-4jW6h-11" target="h445fZysmHR-Be-4jW6h-3" edge="1">
          <mxGeometry relative="1" as="geometry">
            <mxPoint x="30" y="-834" as="sourcePoint" />
            <mxPoint x="-24.85447939617211" y="-788.225567863454" as="targetPoint" />
          </mxGeometry>
        </mxCell>
        <mxCell id="h445fZysmHR-Be-4jW6h-25" value="1:N" style="fontColor=default;labelBackgroundColor=none;labelBorderColor=none;whiteSpace=wrap;html=1;gradientColor=none;fillColor=none;strokeColor=none;" parent="1" vertex="1">
          <mxGeometry x="70" y="-574" width="30" height="20" as="geometry" />
        </mxCell>
        <mxCell id="h445fZysmHR-Be-4jW6h-26" value="(1:M)" style="fontColor=default;labelBackgroundColor=none;labelBorderColor=none;whiteSpace=wrap;html=1;gradientColor=none;fillColor=none;strokeColor=none;" parent="1" vertex="1">
          <mxGeometry x="10" y="-454" width="30" height="30" as="geometry" />
        </mxCell>
        <mxCell id="h445fZysmHR-Be-4jW6h-27" value="&lt;div style=&quot;text-align: center;&quot;&gt;&lt;span style=&quot;text-align: start; background-color: initial;&quot;&gt;(1:1)&lt;/span&gt;&lt;span style=&quot;color: rgba(0, 0, 0, 0); font-family: monospace; font-size: 0px; text-align: start; text-wrap: nowrap; background-color: initial;&quot;&gt;odel%3E%3Croot%3E%3CmxCell%20id%3D%220%22%2F%3E%3CmxCell%20id%3D%221%22%20parent%3D%220%22%2F%3E%3CmxCell%20id%3D%222%22%20value%3D%22N%3AM%22%20style%3D%22fontColor%3Ddefault%3BlabelBackgroundColor%3Dnone%3BlabelBorderColor%3Dnone%3BwhiteSpace%3Dwrap%3Bhtml%3D1%3BgradientColor%3Dnone%3BfillColor%3Dnone%3BstrokeColor%3Dnone%3B%22%20vertex%3D%221%22%20parent%3D%221%22%3E%3CmxGeometry%20x%3D%22640%22%20y%3D%22240%22%20width%3D%2230%22%20height%3D%2220%22%20as%3D%22geometry%22%2F%3E%3C%2FmxCell%3E%3C%2Froot%3E%3C%2FmxGraphModel%3E&lt;/span&gt;&lt;/div&gt;" style="fontColor=default;labelBackgroundColor=none;labelBorderColor=none;whiteSpace=wrap;html=1;gradientColor=none;fillColor=none;strokeColor=none;" parent="1" vertex="1">
          <mxGeometry x="-410" y="-694" width="30" height="20" as="geometry" />
        </mxCell>
        <mxCell id="h445fZysmHR-Be-4jW6h-29" value="(1:1)" style="fontColor=default;labelBackgroundColor=none;labelBorderColor=none;whiteSpace=wrap;html=1;gradientColor=none;fillColor=none;strokeColor=none;" parent="1" vertex="1">
          <mxGeometry x="10" y="-694" width="30" height="30" as="geometry" />
        </mxCell>
        <mxCell id="h445fZysmHR-Be-4jW6h-32" value="calle" style="ellipse;whiteSpace=wrap;html=1;align=center;fillColor=#f5f5f5;fontColor=#333333;strokeColor=#666666;" parent="1" vertex="1">
          <mxGeometry x="70" y="-804" width="100" height="40" as="geometry" />
        </mxCell>
        <mxCell id="h445fZysmHR-Be-4jW6h-33" value="" style="endArrow=none;html=1;rounded=0;exitX=1;exitY=0;exitDx=0;exitDy=0;entryX=0;entryY=1;entryDx=0;entryDy=0;" parent="1" source="h445fZysmHR-Be-4jW6h-3" target="h445fZysmHR-Be-4jW6h-32" edge="1">
          <mxGeometry relative="1" as="geometry">
            <mxPoint x="80" y="-874" as="sourcePoint" />
            <mxPoint x="160" y="-854" as="targetPoint" />
          </mxGeometry>
        </mxCell>
        <mxCell id="h445fZysmHR-Be-4jW6h-37" value="" style="fontSize=12;html=1;endArrow=ERoneToMany;rounded=0;exitX=0.5;exitY=1;exitDx=0;exitDy=0;entryX=0.5;entryY=0;entryDx=0;entryDy=0;" parent="1" source="h445fZysmHR-Be-4jW6h-3" target="h445fZysmHR-Be-4jW6h-4" edge="1">
          <mxGeometry width="100" height="100" relative="1" as="geometry">
            <mxPoint x="-280" y="-414" as="sourcePoint" />
            <mxPoint x="90" y="-504" as="targetPoint" />
          </mxGeometry>
        </mxCell>
        <mxCell id="h445fZysmHR-Be-4jW6h-38" value="gestiona" style="shape=rhombus;perimeter=rhombusPerimeter;whiteSpace=wrap;html=1;align=center;fillColor=#647687;fontColor=#ffffff;strokeColor=#314354;fontStyle=1" parent="1" vertex="1">
          <mxGeometry x="-50" y="-594" width="120" height="60" as="geometry" />
        </mxCell>
        <mxCell id="h445fZysmHR-Be-4jW6h-44" value="PROPIETARIO" style="whiteSpace=wrap;html=1;align=center;fontStyle=1;fillColor=#e51400;fontColor=#ffffff;strokeColor=#B20000;" parent="1" vertex="1">
          <mxGeometry x="320" y="-744" width="100" height="40" as="geometry" />
        </mxCell>
        <mxCell id="h445fZysmHR-Be-4jW6h-45" value="ID" style="ellipse;whiteSpace=wrap;html=1;align=center;fontStyle=4;fillColor=#f8cecc;strokeColor=#b85450;" parent="1" vertex="1">
          <mxGeometry x="320" y="-824" width="100" height="40" as="geometry" />
        </mxCell>
        <mxCell id="h445fZysmHR-Be-4jW6h-46" value="apellido" style="ellipse;whiteSpace=wrap;html=1;align=center;fillColor=#f5f5f5;fontColor=#333333;strokeColor=#666666;" parent="1" vertex="1">
          <mxGeometry x="420" y="-794" width="100" height="40" as="geometry" />
        </mxCell>
        <mxCell id="h445fZysmHR-Be-4jW6h-47" value="telefono" style="ellipse;whiteSpace=wrap;html=1;align=center;fillColor=#f5f5f5;fontColor=#333333;strokeColor=#666666;" parent="1" vertex="1">
          <mxGeometry x="430" y="-694" width="100" height="40" as="geometry" />
        </mxCell>
        <mxCell id="h445fZysmHR-Be-4jW6h-48" value="dirección" style="ellipse;whiteSpace=wrap;html=1;align=center;fillColor=#f5f5f5;fontColor=#333333;strokeColor=#666666;" parent="1" vertex="1">
          <mxGeometry x="450" y="-744" width="100" height="40" as="geometry" />
        </mxCell>
        <mxCell id="h445fZysmHR-Be-4jW6h-49" value="" style="endArrow=none;html=1;rounded=0;exitX=1;exitY=0.5;exitDx=0;exitDy=0;entryX=0;entryY=0.5;entryDx=0;entryDy=0;" parent="1" source="h445fZysmHR-Be-4jW6h-44" target="h445fZysmHR-Be-4jW6h-48" edge="1">
          <mxGeometry relative="1" as="geometry">
            <mxPoint x="865" y="-324" as="sourcePoint" />
            <mxPoint x="855" y="-274" as="targetPoint" />
          </mxGeometry>
        </mxCell>
        <mxCell id="h445fZysmHR-Be-4jW6h-50" value="" style="endArrow=none;html=1;rounded=0;exitX=0.5;exitY=0;exitDx=0;exitDy=0;entryX=0.5;entryY=1;entryDx=0;entryDy=0;" parent="1" source="h445fZysmHR-Be-4jW6h-44" target="h445fZysmHR-Be-4jW6h-45" edge="1">
          <mxGeometry relative="1" as="geometry">
            <mxPoint x="485" y="-324" as="sourcePoint" />
            <mxPoint x="515" y="-264" as="targetPoint" />
          </mxGeometry>
        </mxCell>
        <mxCell id="h445fZysmHR-Be-4jW6h-51" value="" style="endArrow=none;html=1;rounded=0;exitX=1;exitY=0;exitDx=0;exitDy=0;entryX=0;entryY=1;entryDx=0;entryDy=0;" parent="1" source="h445fZysmHR-Be-4jW6h-44" target="h445fZysmHR-Be-4jW6h-46" edge="1">
          <mxGeometry relative="1" as="geometry">
            <mxPoint x="435" y="-354" as="sourcePoint" />
            <mxPoint x="390" y="-380" as="targetPoint" />
          </mxGeometry>
        </mxCell>
        <mxCell id="h445fZysmHR-Be-4jW6h-52" value="" style="endArrow=none;html=1;rounded=0;exitX=1;exitY=1;exitDx=0;exitDy=0;entryX=0;entryY=0;entryDx=0;entryDy=0;" parent="1" source="h445fZysmHR-Be-4jW6h-44" target="h445fZysmHR-Be-4jW6h-47" edge="1">
          <mxGeometry relative="1" as="geometry">
            <mxPoint x="435" y="-334" as="sourcePoint" />
            <mxPoint x="410.1455206038279" y="-288.225567863454" as="targetPoint" />
          </mxGeometry>
        </mxCell>
        <mxCell id="h445fZysmHR-Be-4jW6h-53" value="nombre" style="ellipse;whiteSpace=wrap;html=1;align=center;fillColor=#f5f5f5;fontColor=#333333;strokeColor=#666666;" parent="1" vertex="1">
          <mxGeometry x="220" y="-794" width="100" height="40" as="geometry" />
        </mxCell>
        <mxCell id="h445fZysmHR-Be-4jW6h-54" value="" style="endArrow=none;html=1;rounded=0;exitX=0;exitY=0;exitDx=0;exitDy=0;entryX=1;entryY=1;entryDx=0;entryDy=0;" parent="1" source="h445fZysmHR-Be-4jW6h-44" target="h445fZysmHR-Be-4jW6h-53" edge="1">
          <mxGeometry relative="1" as="geometry">
            <mxPoint x="525" y="-344" as="sourcePoint" />
            <mxPoint x="595" y="-354" as="targetPoint" />
          </mxGeometry>
        </mxCell>
        <mxCell id="h445fZysmHR-Be-4jW6h-66" value="INQUILINO" style="whiteSpace=wrap;html=1;align=center;fillColor=#e51400;fontColor=#ffffff;strokeColor=#B20000;fontStyle=1" parent="1" vertex="1">
          <mxGeometry x="-460" y="-544" width="100" height="40" as="geometry" />
        </mxCell>
        <mxCell id="h445fZysmHR-Be-4jW6h-67" value="DNI" style="ellipse;whiteSpace=wrap;html=1;align=center;fontStyle=4;fillColor=#f8cecc;strokeColor=#b85450;" parent="1" vertex="1">
          <mxGeometry x="-460" y="-474" width="100" height="40" as="geometry" />
        </mxCell>
        <mxCell id="h445fZysmHR-Be-4jW6h-68" value="apellido" style="ellipse;whiteSpace=wrap;html=1;align=center;fillColor=#f5f5f5;fontColor=#333333;strokeColor=#666666;" parent="1" vertex="1">
          <mxGeometry x="-330" y="-544" width="100" height="40" as="geometry" />
        </mxCell>
        <mxCell id="h445fZysmHR-Be-4jW6h-69" value="" style="endArrow=none;html=1;rounded=0;exitX=0.5;exitY=0;exitDx=0;exitDy=0;entryX=0.5;entryY=1;entryDx=0;entryDy=0;" parent="1" source="h445fZysmHR-Be-4jW6h-67" target="h445fZysmHR-Be-4jW6h-66" edge="1">
          <mxGeometry relative="1" as="geometry">
            <mxPoint x="-190" y="-144" as="sourcePoint" />
            <mxPoint x="-360" y="-374" as="targetPoint" />
          </mxGeometry>
        </mxCell>
        <mxCell id="h445fZysmHR-Be-4jW6h-70" value="" style="endArrow=none;html=1;rounded=0;exitX=1;exitY=0.5;exitDx=0;exitDy=0;entryX=0;entryY=0.5;entryDx=0;entryDy=0;" parent="1" source="h445fZysmHR-Be-4jW6h-66" target="h445fZysmHR-Be-4jW6h-68" edge="1">
          <mxGeometry relative="1" as="geometry">
            <mxPoint x="-405" y="-400" as="sourcePoint" />
            <mxPoint x="-350" y="-365" as="targetPoint" />
          </mxGeometry>
        </mxCell>
        <mxCell id="h445fZysmHR-Be-4jW6h-73" value="fecha de nacimiento" style="ellipse;whiteSpace=wrap;html=1;align=center;fillColor=#f5f5f5;fontColor=#333333;strokeColor=#666666;" parent="1" vertex="1">
          <mxGeometry x="-590" y="-544" width="100" height="40" as="geometry" />
        </mxCell>
        <mxCell id="h445fZysmHR-Be-4jW6h-74" value="" style="endArrow=none;html=1;rounded=0;exitX=0;exitY=0.5;exitDx=0;exitDy=0;entryX=1;entryY=0.5;entryDx=0;entryDy=0;" parent="1" source="h445fZysmHR-Be-4jW6h-66" target="h445fZysmHR-Be-4jW6h-73" edge="1">
          <mxGeometry relative="1" as="geometry">
            <mxPoint x="-540" y="-274" as="sourcePoint" />
            <mxPoint x="-480" y="-265" as="targetPoint" />
          </mxGeometry>
        </mxCell>
        <mxCell id="h445fZysmHR-Be-4jW6h-75" value="nombre" style="ellipse;whiteSpace=wrap;html=1;align=center;fillColor=#f5f5f5;fontColor=#333333;strokeColor=#666666;" parent="1" vertex="1">
          <mxGeometry x="-340" y="-494" width="100" height="40" as="geometry" />
        </mxCell>
        <mxCell id="h445fZysmHR-Be-4jW6h-76" value="" style="endArrow=none;html=1;rounded=0;exitX=1;exitY=1;exitDx=0;exitDy=0;entryX=0;entryY=0;entryDx=0;entryDy=0;" parent="1" source="h445fZysmHR-Be-4jW6h-66" target="h445fZysmHR-Be-4jW6h-75" edge="1">
          <mxGeometry relative="1" as="geometry">
            <mxPoint x="-490" y="-354" as="sourcePoint" />
            <mxPoint x="-430" y="-345" as="targetPoint" />
          </mxGeometry>
        </mxCell>
        <mxCell id="h445fZysmHR-Be-4jW6h-90" value="&lt;div style=&quot;text-align: center;&quot;&gt;&lt;span style=&quot;text-align: start; background-color: initial;&quot;&gt;(1:M)&lt;/span&gt;&lt;span style=&quot;color: rgba(0, 0, 0, 0); font-family: monospace; font-size: 0px; text-align: start; text-wrap: nowrap; background-color: initial;&quot;&gt;odel%3E%3Croot%3E%3CmxCell%20id%3D%220%22%2F%3E%3CmxCell%20id%3D%221%22%20parent%3D%220%22%2F%3E%3CmxCell%20id%3D%222%22%20value%3D%22N%3AM%22%20style%3D%22fontColor%3Ddefault%3BlabelBackgroundColor%3Dnone%3BlabelBorderColor%3Dnone%3BwhiteSpace%3Dwrap%3Bhtml%3D1%3BgradientColor%3Dnone%3BfillColor%3Dnone%3BstrokeColor%3Dnone%3B%22%20vertex%3D%221%22%20parent%3D%221%22%3E%3CmxGeometry%20x%3D%22640%22%20y%3D%22240%22%20width%3D%2230%22%20height%3D%2220%22%20as%3D%22geometry%22%2F%3E%3C%2FmxCell%3E%3C%2Froot%3E%3C%2FmxGraphModel%3E&lt;/span&gt;&lt;/div&gt;" style="fontColor=default;labelBackgroundColor=none;labelBorderColor=none;whiteSpace=wrap;html=1;gradientColor=none;fillColor=none;strokeColor=none;" parent="1" vertex="1">
          <mxGeometry x="280" y="-744" width="30" height="20" as="geometry" />
        </mxCell>
        <mxCell id="h445fZysmHR-Be-4jW6h-91" value="&lt;div style=&quot;text-align: center;&quot;&gt;&lt;span style=&quot;text-align: start; background-color: initial;&quot;&gt;(N:1)&lt;/span&gt;&lt;span style=&quot;color: rgba(0, 0, 0, 0); font-family: monospace; font-size: 0px; text-align: start; text-wrap: nowrap; background-color: initial;&quot;&gt;odel%3E%3Croot%3E%3CmxCell%20id%3D%220%22%2F%3E%3CmxCell%20id%3D%221%22%20parent%3D%220%22%2F%3E%3CmxCell%20id%3D%222%22%20value%3D%22N%3AM%22%20style%3D%22fontColor%3Ddefault%3BlabelBackgroundColor%3Dnone%3BlabelBorderColor%3Dnone%3BwhiteSpace%3Dwrap%3Bhtml%3D1%3BgradientColor%3Dnone%3BfillColor%3Dnone%3BstrokeColor%3Dnone%3B%22%20vertex%3D%221%22%20parent%3D%221%22%3E%3CmxGeometry%20x%3D%22640%22%20y%3D%22240%22%20width%3D%2230%22%20height%3D%2220%22%20as%3D%22geometry%22%2F%3E%3C%2FmxCell%3E%3C%2Froot%3E%3C%2FmxGraphModel%3E&lt;/span&gt;&lt;/div&gt;" style="fontColor=default;labelBackgroundColor=none;labelBorderColor=none;whiteSpace=wrap;html=1;gradientColor=none;fillColor=none;strokeColor=none;" parent="1" vertex="1">
          <mxGeometry x="70" y="-744" width="30" height="20" as="geometry" />
        </mxCell>
        <mxCell id="h445fZysmHR-Be-4jW6h-95" value="fecha de inicio" style="ellipse;whiteSpace=wrap;html=1;align=center;fillColor=#f5f5f5;fontColor=#333333;strokeColor=#666666;" parent="1" vertex="1">
          <mxGeometry x="-580" y="-804" width="100" height="40" as="geometry" />
        </mxCell>
        <mxCell id="h445fZysmHR-Be-4jW6h-96" value="fecha de fin" style="ellipse;whiteSpace=wrap;html=1;align=center;fillColor=#f5f5f5;fontColor=#333333;strokeColor=#666666;" parent="1" vertex="1">
          <mxGeometry x="-350" y="-804" width="100" height="40" as="geometry" />
        </mxCell>
        <mxCell id="h445fZysmHR-Be-4jW6h-97" value="fianza" style="ellipse;whiteSpace=wrap;html=1;align=center;fillColor=#f5f5f5;fontColor=#333333;strokeColor=#666666;" parent="1" vertex="1">
          <mxGeometry x="-600" y="-744" width="100" height="40" as="geometry" />
        </mxCell>
        <mxCell id="h445fZysmHR-Be-4jW6h-98" value="fecha de firma" style="ellipse;whiteSpace=wrap;html=1;align=center;fillColor=#f5f5f5;fontColor=#333333;strokeColor=#666666;" parent="1" vertex="1">
          <mxGeometry x="-350" y="-684" width="100" height="40" as="geometry" />
        </mxCell>
        <mxCell id="h445fZysmHR-Be-4jW6h-99" value="" style="endArrow=none;html=1;rounded=0;exitX=1;exitY=0;exitDx=0;exitDy=0;entryX=0;entryY=1;entryDx=0;entryDy=0;" parent="1" source="h445fZysmHR-Be-4jW6h-1" target="h445fZysmHR-Be-4jW6h-96" edge="1">
          <mxGeometry relative="1" as="geometry">
            <mxPoint x="-400" y="-734" as="sourcePoint" />
            <mxPoint x="-400" y="-774" as="targetPoint" />
          </mxGeometry>
        </mxCell>
        <mxCell id="h445fZysmHR-Be-4jW6h-100" value="" style="endArrow=none;html=1;rounded=0;exitX=1;exitY=1;exitDx=0;exitDy=0;entryX=0;entryY=0;entryDx=0;entryDy=0;" parent="1" source="h445fZysmHR-Be-4jW6h-1" target="h445fZysmHR-Be-4jW6h-98" edge="1">
          <mxGeometry relative="1" as="geometry">
            <mxPoint x="-350" y="-734" as="sourcePoint" />
            <mxPoint x="-325" y="-760" as="targetPoint" />
          </mxGeometry>
        </mxCell>
        <mxCell id="h445fZysmHR-Be-4jW6h-101" value="" style="endArrow=none;html=1;rounded=0;exitX=0;exitY=0;exitDx=0;exitDy=0;entryX=1;entryY=1;entryDx=0;entryDy=0;" parent="1" source="h445fZysmHR-Be-4jW6h-1" target="h445fZysmHR-Be-4jW6h-95" edge="1">
          <mxGeometry relative="1" as="geometry">
            <mxPoint x="-350" y="-734" as="sourcePoint" />
            <mxPoint x="-325" y="-760" as="targetPoint" />
          </mxGeometry>
        </mxCell>
        <mxCell id="h445fZysmHR-Be-4jW6h-102" value="" style="endArrow=none;html=1;rounded=0;exitX=0;exitY=0.5;exitDx=0;exitDy=0;entryX=1;entryY=0.5;entryDx=0;entryDy=0;" parent="1" source="h445fZysmHR-Be-4jW6h-1" target="h445fZysmHR-Be-4jW6h-97" edge="1">
          <mxGeometry relative="1" as="geometry">
            <mxPoint x="-450" y="-734" as="sourcePoint" />
            <mxPoint x="-485" y="-760" as="targetPoint" />
          </mxGeometry>
        </mxCell>
        <mxCell id="h445fZysmHR-Be-4jW6h-103" value="telefono de contacto" style="ellipse;whiteSpace=wrap;html=1;align=center;fillColor=#f5f5f5;fontColor=#333333;strokeColor=#666666;" parent="1" vertex="1">
          <mxGeometry x="-580" y="-494" width="100" height="40" as="geometry" />
        </mxCell>
        <mxCell id="h445fZysmHR-Be-4jW6h-104" value="" style="endArrow=none;html=1;rounded=0;exitX=0;exitY=1;exitDx=0;exitDy=0;entryX=1;entryY=0;entryDx=0;entryDy=0;" parent="1" source="h445fZysmHR-Be-4jW6h-66" target="h445fZysmHR-Be-4jW6h-103" edge="1">
          <mxGeometry relative="1" as="geometry">
            <mxPoint x="-450" y="-514" as="sourcePoint" />
            <mxPoint x="-480" y="-514" as="targetPoint" />
          </mxGeometry>
        </mxCell>
        <mxCell id="h445fZysmHR-Be-4jW6h-105" value="descripcion" style="ellipse;whiteSpace=wrap;html=1;align=center;fillColor=#f5f5f5;fontColor=#333333;strokeColor=#666666;" parent="1" vertex="1">
          <mxGeometry x="70" y="-854" width="100" height="40" as="geometry" />
        </mxCell>
        <mxCell id="h445fZysmHR-Be-4jW6h-106" value="email" style="ellipse;whiteSpace=wrap;html=1;align=center;fillColor=#f5f5f5;fontColor=#333333;strokeColor=#666666;" parent="1" vertex="1">
          <mxGeometry x="320" y="-674" width="100" height="40" as="geometry" />
        </mxCell>
        <mxCell id="h445fZysmHR-Be-4jW6h-107" value="código postal" style="ellipse;whiteSpace=wrap;html=1;align=center;fillColor=#f5f5f5;fontColor=#333333;strokeColor=#666666;" parent="1" vertex="1">
          <mxGeometry x="-150" y="-854" width="100" height="40" as="geometry" />
        </mxCell>
        <mxCell id="h445fZysmHR-Be-4jW6h-108" value="" style="endArrow=none;html=1;rounded=0;exitX=0.25;exitY=0;exitDx=0;exitDy=0;entryX=1;entryY=1;entryDx=0;entryDy=0;" parent="1" source="h445fZysmHR-Be-4jW6h-3" target="h445fZysmHR-Be-4jW6h-107" edge="1">
          <mxGeometry relative="1" as="geometry">
            <mxPoint x="-20" y="-854" as="sourcePoint" />
            <mxPoint x="-35" y="-808" as="targetPoint" />
          </mxGeometry>
        </mxCell>
        <mxCell id="h445fZysmHR-Be-4jW6h-109" value="" style="endArrow=none;html=1;rounded=0;exitX=0.75;exitY=0;exitDx=0;exitDy=0;entryX=0;entryY=1;entryDx=0;entryDy=0;" parent="1" source="h445fZysmHR-Be-4jW6h-3" target="h445fZysmHR-Be-4jW6h-105" edge="1">
          <mxGeometry relative="1" as="geometry">
            <mxPoint x="-20" y="-874" as="sourcePoint" />
            <mxPoint x="-35" y="-844" as="targetPoint" />
          </mxGeometry>
        </mxCell>
        <mxCell id="h445fZysmHR-Be-4jW6h-110" value="" style="endArrow=none;html=1;rounded=0;exitX=0.5;exitY=1;exitDx=0;exitDy=0;entryX=0.5;entryY=0;entryDx=0;entryDy=0;" parent="1" source="h445fZysmHR-Be-4jW6h-44" target="h445fZysmHR-Be-4jW6h-106" edge="1">
          <mxGeometry relative="1" as="geometry">
            <mxPoint x="430" y="-694" as="sourcePoint" />
            <mxPoint x="455" y="-678" as="targetPoint" />
          </mxGeometry>
        </mxCell>
        <mxCell id="h445fZysmHR-Be-4jW6h-112" value="nombre" style="ellipse;whiteSpace=wrap;html=1;align=center;fillColor=#f5f5f5;fontColor=#333333;strokeColor=#666666;" parent="1" vertex="1">
          <mxGeometry x="-115" y="-354" width="100" height="40" as="geometry" />
        </mxCell>
        <mxCell id="h445fZysmHR-Be-4jW6h-113" value="" style="endArrow=none;html=1;rounded=0;exitX=0.25;exitY=1;exitDx=0;exitDy=0;entryX=1;entryY=0;entryDx=0;entryDy=0;" parent="1" source="h445fZysmHR-Be-4jW6h-4" target="h445fZysmHR-Be-4jW6h-112" edge="1">
          <mxGeometry relative="1" as="geometry">
            <mxPoint x="10" y="-344" as="sourcePoint" />
            <mxPoint y="-334" as="targetPoint" />
          </mxGeometry>
        </mxCell>
        <mxCell id="h445fZysmHR-Be-4jW6h-114" value="nombre" style="ellipse;whiteSpace=wrap;html=1;align=center;fillColor=#f5f5f5;fontColor=#333333;strokeColor=#666666;" parent="1" vertex="1">
          <mxGeometry x="40" y="-354" width="100" height="40" as="geometry" />
        </mxCell>
        <mxCell id="h445fZysmHR-Be-4jW6h-115" value="" style="endArrow=none;html=1;rounded=0;exitX=0.75;exitY=1;exitDx=0;exitDy=0;entryX=0;entryY=0;entryDx=0;entryDy=0;" parent="1" source="h445fZysmHR-Be-4jW6h-4" target="h445fZysmHR-Be-4jW6h-114" edge="1">
          <mxGeometry relative="1" as="geometry">
            <mxPoint x="77" y="-344" as="sourcePoint" />
            <mxPoint x="-243" y="-335" as="targetPoint" />
          </mxGeometry>
        </mxCell>
        <mxCell id="h445fZysmHR-Be-4jW6h-117" value="(1:M)" style="fontColor=default;labelBackgroundColor=none;labelBorderColor=none;whiteSpace=wrap;html=1;gradientColor=none;fillColor=none;strokeColor=none;" parent="1" vertex="1">
          <mxGeometry x="-410" y="-564" width="30" height="20" as="geometry" />
        </mxCell>
        <mxCell id="h445fZysmHR-Be-4jW6h-118" value="" style="fontSize=12;html=1;endArrow=ERone;endFill=1;rounded=0;entryX=0;entryY=0.5;entryDx=0;entryDy=0;exitX=1;exitY=0.5;exitDx=0;exitDy=0;" parent="1" source="h445fZysmHR-Be-4jW6h-3" target="h445fZysmHR-Be-4jW6h-44" edge="1">
          <mxGeometry width="100" height="100" relative="1" as="geometry">
            <mxPoint x="-20" y="-614" as="sourcePoint" />
            <mxPoint x="80" y="-714" as="targetPoint" />
          </mxGeometry>
        </mxCell>
        <mxCell id="h445fZysmHR-Be-4jW6h-119" value="&lt;div style=&quot;text-align: center;&quot;&gt;&lt;span style=&quot;text-align: start; background-color: initial;&quot;&gt;(1:1)&lt;/span&gt;&lt;span style=&quot;color: rgba(0, 0, 0, 0); font-family: monospace; font-size: 0px; text-align: start; text-wrap: nowrap; background-color: initial;&quot;&gt;odel%3E%3Croot%3E%3CmxCell%20id%3D%220%22%2F%3E%3CmxCell%20id%3D%221%22%20parent%3D%220%22%2F%3E%3CmxCell%20id%3D%222%22%20value%3D%22N%3AM%22%20style%3D%22fontColor%3Ddefault%3BlabelBackgroundColor%3Dnone%3BlabelBorderColor%3Dnone%3BwhiteSpace%3Dwrap%3Bhtml%3D1%3BgradientColor%3Dnone%3BfillColor%3Dnone%3BstrokeColor%3Dnone%3B%22%20vertex%3D%221%22%20parent%3D%221%22%3E%3CmxGeometry%20x%3D%22640%22%20y%3D%22240%22%20width%3D%2230%22%20height%3D%2220%22%20as%3D%22geometry%22%2F%3E%3C%2FmxCell%3E%3C%2Froot%3E%3C%2FmxGraphModel%3E&lt;/span&gt;&lt;/div&gt;" style="fontColor=default;labelBackgroundColor=none;labelBorderColor=none;whiteSpace=wrap;html=1;gradientColor=none;fillColor=none;strokeColor=none;" parent="1" vertex="1">
          <mxGeometry x="-350" y="-744" width="30" height="20" as="geometry" />
        </mxCell>
        <mxCell id="h445fZysmHR-Be-4jW6h-121" value="&lt;div style=&quot;text-align: center;&quot;&gt;&lt;span style=&quot;text-align: start; background-color: initial;&quot;&gt;(1:M)&lt;/span&gt;&lt;span style=&quot;color: rgba(0, 0, 0, 0); font-family: monospace; font-size: 0px; text-align: start; text-wrap: nowrap; background-color: initial;&quot;&gt;odel%3E%3Croot%3E%3CmxCell%20id%3D%220%22%2F%3E%3CmxCell%20id%3D%221%22%20parent%3D%220%22%2F%3E%3CmxCell%20id%3D%222%22%20value%3D%22N%3AM%22%20style%3D%22fontColor%3Ddefault%3BlabelBackgroundColor%3Dnone%3BlabelBorderColor%3Dnone%3BwhiteSpace%3Dwrap%3Bhtml%3D1%3BgradientColor%3Dnone%3BfillColor%3Dnone%3BstrokeColor%3Dnone%3B%22%20vertex%3D%221%22%20parent%3D%221%22%3E%3CmxGeometry%20x%3D%22640%22%20y%3D%22240%22%20width%3D%2230%22%20height%3D%2220%22%20as%3D%22geometry%22%2F%3E%3C%2FmxCell%3E%3C%2Froot%3E%3C%2FmxGraphModel%3E&lt;/span&gt;&lt;/div&gt;" style="fontColor=default;labelBackgroundColor=none;labelBorderColor=none;whiteSpace=wrap;html=1;gradientColor=none;fillColor=none;strokeColor=none;" parent="1" vertex="1">
          <mxGeometry x="-100" y="-744" width="30" height="20" as="geometry" />
        </mxCell>
        <mxCell id="h445fZysmHR-Be-4jW6h-123" value="" style="fontSize=12;html=1;endArrow=ERone;endFill=1;rounded=0;entryX=0;entryY=0.5;entryDx=0;entryDy=0;exitX=1;exitY=0.5;exitDx=0;exitDy=0;" parent="1" source="h445fZysmHR-Be-4jW6h-1" target="h445fZysmHR-Be-4jW6h-3" edge="1">
          <mxGeometry width="100" height="100" relative="1" as="geometry">
            <mxPoint x="70" y="-714" as="sourcePoint" />
            <mxPoint x="330" y="-714" as="targetPoint" />
          </mxGeometry>
        </mxCell>
        <mxCell id="h445fZysmHR-Be-4jW6h-124" value="" style="fontSize=12;html=1;endArrow=ERone;endFill=1;rounded=0;entryX=0.5;entryY=0;entryDx=0;entryDy=0;exitX=0.5;exitY=1;exitDx=0;exitDy=0;" parent="1" source="h445fZysmHR-Be-4jW6h-1" target="h445fZysmHR-Be-4jW6h-66" edge="1">
          <mxGeometry width="100" height="100" relative="1" as="geometry">
            <mxPoint x="-350" y="-714" as="sourcePoint" />
            <mxPoint x="-30" y="-714" as="targetPoint" />
          </mxGeometry>
        </mxCell>
      </root>
    </mxGraphModel>
  </diagram>
</mxfile>
